<mxfile host="Electron" agent="Mozilla/5.0 (Windows NT 10.0; Win64; x64) AppleWebKit/537.36 (KHTML, like Gecko) draw.io/26.0.9 Chrome/128.0.6613.186 Electron/32.2.5 Safari/537.36" version="26.0.9">
  <diagram name="Page-1" id="qt4e0Ns0KmB2NCPrAL0E">
    <mxGraphModel dx="880" dy="532" grid="1" gridSize="10" guides="1" tooltips="1" connect="1" arrows="1" fold="1" page="1" pageScale="1" pageWidth="850" pageHeight="1100" math="0" shadow="0">
      <root>
        <mxCell id="0" />
        <mxCell id="1" parent="0" />
        <mxCell id="ivhIEPTqHGX7pbVCswgi-3" value="Dados de entrada" style="sketch=0;outlineConnect=0;fontColor=#232F3E;gradientColor=none;fillColor=#232F3D;strokeColor=none;dashed=0;verticalLabelPosition=top;verticalAlign=bottom;align=center;html=1;fontSize=16;fontStyle=0;aspect=fixed;pointerEvents=1;shape=mxgraph.aws4.document;labelPosition=center;" parent="1" vertex="1">
          <mxGeometry x="74" y="266" width="58.46" height="80" as="geometry" />
        </mxCell>
        <mxCell id="ivhIEPTqHGX7pbVCswgi-11" value="" style="group" parent="1" vertex="1" connectable="0">
          <mxGeometry x="210" y="140" width="320" height="310" as="geometry" />
        </mxCell>
        <mxCell id="ivhIEPTqHGX7pbVCswgi-7" value="" style="rounded=0;whiteSpace=wrap;html=1;" parent="ivhIEPTqHGX7pbVCswgi-11" vertex="1">
          <mxGeometry width="320" height="310" as="geometry" />
        </mxCell>
        <mxCell id="ivhIEPTqHGX7pbVCswgi-8" value="&lt;span style=&quot;font-weight: normal;&quot;&gt;&lt;font style=&quot;font-size: 16px;&quot;&gt;Máquina Local&lt;/font&gt;&lt;/span&gt;" style="text;html=1;align=center;verticalAlign=middle;whiteSpace=wrap;rounded=0;fontSize=14;fontStyle=1" parent="ivhIEPTqHGX7pbVCswgi-11" vertex="1">
          <mxGeometry x="1" width="126" height="30" as="geometry" />
        </mxCell>
        <mxCell id="ivhIEPTqHGX7pbVCswgi-12" value="" style="group" parent="ivhIEPTqHGX7pbVCswgi-11" vertex="1" connectable="0">
          <mxGeometry x="20" y="40" width="280" height="240" as="geometry" />
        </mxCell>
        <mxCell id="ivhIEPTqHGX7pbVCswgi-1" value="" style="rounded=0;whiteSpace=wrap;html=1;" parent="ivhIEPTqHGX7pbVCswgi-12" vertex="1">
          <mxGeometry width="280" height="240" as="geometry" />
        </mxCell>
        <mxCell id="ivhIEPTqHGX7pbVCswgi-4" value="&lt;span style=&quot;font-weight: normal;&quot;&gt;&lt;font style=&quot;font-size: 16px;&quot;&gt;JVM&lt;/font&gt;&lt;/span&gt;" style="text;html=1;align=center;verticalAlign=middle;whiteSpace=wrap;rounded=0;fontSize=14;fontStyle=1" parent="ivhIEPTqHGX7pbVCswgi-12" vertex="1">
          <mxGeometry width="60" height="30" as="geometry" />
        </mxCell>
        <mxCell id="ivhIEPTqHGX7pbVCswgi-18" value="" style="rounded=0;whiteSpace=wrap;html=1;" parent="ivhIEPTqHGX7pbVCswgi-12" vertex="1">
          <mxGeometry x="30" y="40" width="220" height="170" as="geometry" />
        </mxCell>
        <mxCell id="ivhIEPTqHGX7pbVCswgi-19" value="&lt;span style=&quot;font-weight: normal;&quot;&gt;&lt;font style=&quot;font-size: 16px;&quot;&gt;Aplicação&lt;/font&gt;&lt;/span&gt;" style="text;html=1;align=center;verticalAlign=middle;whiteSpace=wrap;rounded=0;fontSize=14;fontStyle=1" parent="ivhIEPTqHGX7pbVCswgi-12" vertex="1">
          <mxGeometry x="30" y="40" width="90" height="28.57" as="geometry" />
        </mxCell>
        <mxCell id="ivhIEPTqHGX7pbVCswgi-13" value="" style="group" parent="1" vertex="1" connectable="0">
          <mxGeometry x="210" y="540" width="320" height="200" as="geometry" />
        </mxCell>
        <mxCell id="ivhIEPTqHGX7pbVCswgi-9" value="" style="rounded=0;whiteSpace=wrap;html=1;" parent="ivhIEPTqHGX7pbVCswgi-13" vertex="1">
          <mxGeometry width="320" height="200" as="geometry" />
        </mxCell>
        <mxCell id="ivhIEPTqHGX7pbVCswgi-10" value="&lt;span style=&quot;font-weight: normal;&quot;&gt;&lt;font style=&quot;font-size: 16px;&quot;&gt;Servidor&lt;/font&gt;&lt;/span&gt;" style="text;html=1;align=center;verticalAlign=middle;whiteSpace=wrap;rounded=0;fontStyle=1;fontSize=14;" parent="ivhIEPTqHGX7pbVCswgi-13" vertex="1">
          <mxGeometry width="80" height="28.57" as="geometry" />
        </mxCell>
        <mxCell id="ivhIEPTqHGX7pbVCswgi-15" value="" style="rounded=0;whiteSpace=wrap;html=1;" parent="ivhIEPTqHGX7pbVCswgi-13" vertex="1">
          <mxGeometry x="30" y="40" width="260" height="140" as="geometry" />
        </mxCell>
        <mxCell id="ivhIEPTqHGX7pbVCswgi-16" value="&lt;span style=&quot;font-weight: normal;&quot;&gt;&lt;font style=&quot;font-size: 16px;&quot;&gt;Base de dados PostgreSQL&lt;/font&gt;&lt;/span&gt;" style="text;html=1;align=center;verticalAlign=middle;whiteSpace=wrap;rounded=0;fontStyle=1;fontSize=14;" parent="ivhIEPTqHGX7pbVCswgi-13" vertex="1">
          <mxGeometry x="30" y="40" width="230" height="28.57" as="geometry" />
        </mxCell>
        <mxCell id="ivhIEPTqHGX7pbVCswgi-14" value="" style="endArrow=block;html=1;rounded=0;startArrow=classic;startFill=1;endFill=1;edgeStyle=orthogonalEdgeStyle;" parent="1" source="ivhIEPTqHGX7pbVCswgi-15" target="ivhIEPTqHGX7pbVCswgi-18" edge="1">
          <mxGeometry width="50" height="50" relative="1" as="geometry">
            <mxPoint x="480" y="600" as="sourcePoint" />
            <mxPoint x="530" y="550" as="targetPoint" />
          </mxGeometry>
        </mxCell>
        <mxCell id="ivhIEPTqHGX7pbVCswgi-17" value="" style="endArrow=none;html=1;rounded=0;startArrow=classic;startFill=1;edgeStyle=orthogonalEdgeStyle;" parent="1" source="ivhIEPTqHGX7pbVCswgi-18" target="ivhIEPTqHGX7pbVCswgi-3" edge="1">
          <mxGeometry width="50" height="50" relative="1" as="geometry">
            <mxPoint x="380" y="570" as="sourcePoint" />
            <mxPoint x="380" y="430" as="targetPoint" />
            <Array as="points">
              <mxPoint x="170" y="305" />
              <mxPoint x="170" y="305" />
            </Array>
          </mxGeometry>
        </mxCell>
        <mxCell id="3rA-hX2oMdFs4SSk3TAP-1" value="&lt;span style=&quot;font-weight: normal;&quot;&gt;&lt;font style=&quot;font-size: 16px;&quot;&gt;Conexão por JDBC&lt;/font&gt;&lt;/span&gt;" style="text;html=1;align=center;verticalAlign=middle;whiteSpace=wrap;rounded=0;fontSize=14;fontStyle=1" parent="1" vertex="1">
          <mxGeometry x="371" y="483" width="156" height="30" as="geometry" />
        </mxCell>
        <mxCell id="3oU_jW1MSCWfIVDu8UCs-1" value="Dados de saida" style="sketch=0;outlineConnect=0;fontColor=#232F3E;gradientColor=none;fillColor=#232F3D;strokeColor=none;dashed=0;verticalLabelPosition=top;verticalAlign=bottom;align=center;html=1;fontSize=16;fontStyle=0;aspect=fixed;pointerEvents=1;shape=mxgraph.aws4.document;labelPosition=center;" vertex="1" parent="1">
          <mxGeometry x="600" y="265" width="58.46" height="80" as="geometry" />
        </mxCell>
        <mxCell id="3oU_jW1MSCWfIVDu8UCs-2" value="" style="endArrow=none;html=1;rounded=0;startArrow=classic;startFill=1;edgeStyle=orthogonalEdgeStyle;entryX=1;entryY=0.5;entryDx=0;entryDy=0;" edge="1" parent="1" source="3oU_jW1MSCWfIVDu8UCs-1" target="ivhIEPTqHGX7pbVCswgi-18">
          <mxGeometry width="50" height="50" relative="1" as="geometry">
            <mxPoint x="80" y="440" as="sourcePoint" />
            <mxPoint x="180" y="515" as="targetPoint" />
            <Array as="points" />
          </mxGeometry>
        </mxCell>
      </root>
    </mxGraphModel>
  </diagram>
</mxfile>
